<svg id="svg" version="1.1" xmlns="http://www.w3.org/2000/svg" xmlns:xlink="http://www.w3.org/1999/xlink" width="400" height="65.78947368421052" viewBox="0, 0, 400,65.78947368421052"><g id="svgg"><path id="path0" d="M19.727 10.583 C 19.674 10.721,19.482 10.833,19.300 10.833 C 19.115 10.833,18.932 10.973,18.886 11.149 C 18.838 11.334,18.600 11.505,18.312 11.563 C 17.962 11.633,17.751 11.819,17.583 12.206 C 17.447 12.518,17.344 12.626,17.340 12.458 C 17.335 12.227,17.186 12.167,16.617 12.167 C 16.223 12.167,15.810 12.077,15.700 11.967 C 15.544 11.811,15.456 11.811,15.300 11.967 C 15.144 12.122,15.144 12.211,15.300 12.367 C 15.594 12.660,15.544 12.833,15.167 12.833 C 14.944 12.833,14.833 12.722,14.833 12.500 C 14.833 12.216,14.722 12.167,14.083 12.167 C 13.553 12.167,13.333 12.099,13.333 11.934 C 13.333 11.807,13.215 11.657,13.070 11.601 C 12.717 11.466,12.727 11.463,12.429 11.762 C 11.815 12.375,12.374 14.167,13.179 14.167 C 13.457 14.167,13.500 14.289,13.500 15.083 L 13.500 16.000 14.208 16.023 C 14.598 16.035,14.766 16.076,14.582 16.112 C 14.078 16.213,13.392 17.292,13.611 17.640 C 13.901 18.101,16.000 18.132,16.000 17.674 C 16.000 17.479,16.109 17.333,16.255 17.333 C 16.396 17.333,16.579 17.165,16.661 16.958 L 16.812 16.583 16.823 16.958 C 16.838 17.500,18.667 17.541,18.667 17.000 C 18.667 16.756,18.778 16.667,19.083 16.667 C 19.601 16.667,19.669 17.250,19.167 17.382 C 18.877 17.457,18.833 17.609,18.833 18.534 C 18.833 19.120,18.752 19.681,18.654 19.780 C 18.439 19.994,18.512 20.828,18.750 20.880 C 18.842 20.900,18.940 20.710,18.969 20.458 C 19.042 19.830,19.408 19.879,19.453 20.523 C 19.475 20.829,19.631 21.144,19.831 21.284 C 20.019 21.415,20.126 21.598,20.069 21.689 C 20.013 21.781,20.124 21.897,20.317 21.947 C 20.544 22.007,20.667 22.173,20.667 22.422 C 20.667 22.967,20.834 23.333,21.082 23.333 C 21.199 23.333,21.334 23.483,21.382 23.667 C 21.430 23.850,21.588 24.000,21.734 24.000 C 21.928 24.000,22.000 24.162,22.000 24.599 C 22.000 25.058,22.078 25.218,22.333 25.285 C 22.584 25.351,22.667 25.512,22.667 25.936 C 22.667 26.331,22.743 26.500,22.922 26.500 C 23.062 26.500,23.226 26.631,23.286 26.792 C 23.346 26.952,23.531 27.181,23.697 27.301 C 23.864 27.421,24.000 27.709,24.000 27.942 C 24.000 28.224,24.111 28.393,24.333 28.452 C 24.586 28.518,24.667 28.679,24.667 29.118 C 24.667 29.558,24.747 29.719,25.000 29.785 C 25.184 29.833,25.333 30.012,25.333 30.186 C 25.333 30.389,25.451 30.500,25.667 30.500 C 25.889 30.500,26.000 30.611,26.000 30.833 C 26.000 31.056,26.111 31.167,26.333 31.167 C 26.611 31.167,26.667 31.278,26.667 31.833 C 26.667 32.375,26.725 32.500,26.981 32.500 C 27.154 32.500,27.333 32.649,27.382 32.833 C 27.430 33.017,27.588 33.167,27.734 33.167 C 27.889 33.167,28.000 33.306,28.000 33.500 C 28.000 33.722,28.111 33.833,28.333 33.833 C 28.556 33.833,28.667 33.944,28.667 34.167 C 28.667 34.382,28.778 34.500,28.981 34.500 C 29.154 34.500,29.333 34.649,29.382 34.833 C 29.430 35.017,29.588 35.167,29.734 35.167 C 29.889 35.167,30.000 35.306,30.000 35.500 C 30.000 35.722,30.111 35.833,30.333 35.833 C 30.517 35.833,30.667 35.941,30.667 36.072 C 30.667 36.203,30.817 36.358,31.000 36.417 C 31.183 36.475,31.333 36.667,31.333 36.845 C 31.333 37.056,31.218 37.167,31.000 37.167 C 30.778 37.167,30.667 37.278,30.667 37.500 C 30.667 37.722,30.556 37.833,30.333 37.833 C 30.059 37.833,30.000 37.944,30.000 38.460 C 30.000 38.906,29.904 39.146,29.667 39.295 C 29.350 39.493,29.333 39.683,29.333 43.211 C 29.333 46.652,29.311 46.934,29.022 47.114 C 28.770 47.272,28.709 47.520,28.704 48.417 C 28.700 49.027,28.739 49.483,28.790 49.432 C 28.842 49.381,28.990 49.469,29.121 49.628 C 29.251 49.787,29.311 49.823,29.253 49.709 C 28.980 49.170,29.038 48.917,29.434 48.917 C 29.654 48.917,29.833 48.974,29.833 49.045 C 29.833 49.221,30.694 49.002,31.000 48.747 C 31.137 48.633,31.420 48.488,31.627 48.424 C 31.853 48.356,31.960 48.230,31.892 48.113 C 31.831 48.005,31.841 47.972,31.916 48.040 C 31.991 48.108,32.147 48.086,32.261 47.990 C 32.406 47.870,32.504 47.871,32.578 47.992 C 32.929 48.559,33.167 48.129,33.167 46.928 C 33.167 45.869,33.211 45.675,33.475 45.591 C 33.732 45.510,33.789 45.297,33.818 44.298 C 33.857 42.959,33.906 42.808,34.255 42.942 C 34.454 43.018,34.500 42.847,34.500 42.037 C 34.500 41.179,34.547 41.027,34.833 40.952 C 35.017 40.904,35.167 40.745,35.167 40.599 C 35.167 40.400,35.334 40.333,35.833 40.333 C 36.389 40.333,36.500 40.389,36.500 40.667 C 36.500 40.963,36.611 41.000,37.500 41.000 C 38.389 41.000,38.500 41.037,38.500 41.333 C 38.500 41.611,38.611 41.667,39.167 41.667 C 39.722 41.667,39.833 41.722,39.833 42.000 C 39.833 42.278,39.944 42.333,40.500 42.333 C 41.056 42.333,41.167 42.389,41.167 42.667 C 41.167 42.882,41.278 43.000,41.481 43.000 C 41.654 43.000,41.833 43.149,41.882 43.333 C 41.948 43.589,42.109 43.667,42.568 43.667 C 43.056 43.667,43.167 43.729,43.167 44.000 C 43.167 44.269,43.278 44.333,43.739 44.333 C 44.164 44.333,44.338 44.419,44.417 44.667 C 44.475 44.850,44.625 45.000,44.750 45.000 C 44.875 45.000,45.026 45.152,45.085 45.338 C 45.144 45.523,45.280 45.665,45.388 45.651 C 45.971 45.579,46.303 45.698,46.384 46.008 C 46.465 46.318,46.582 46.344,47.695 46.299 L 48.917 46.250 48.941 45.298 C 48.954 44.774,48.916 44.351,48.857 44.359 C 48.497 44.405,48.333 44.293,48.333 44.000 C 48.333 43.778,48.222 43.667,48.000 43.667 C 47.817 43.667,47.667 43.559,47.667 43.428 C 47.667 43.297,47.517 43.142,47.333 43.083 C 47.150 43.025,47.000 42.870,47.000 42.739 C 47.000 42.477,46.978 42.468,46.250 42.431 C 45.870 42.412,45.737 42.317,45.697 42.036 C 45.663 41.801,45.527 41.667,45.322 41.667 C 45.111 41.667,45.000 41.552,45.000 41.333 C 45.000 41.118,44.889 41.000,44.686 41.000 C 44.507 41.000,44.333 40.849,44.281 40.650 C 44.230 40.457,44.113 40.347,44.020 40.405 C 43.926 40.462,43.769 40.357,43.669 40.171 C 43.570 39.985,43.340 39.833,43.160 39.833 C 42.979 39.833,42.670 39.648,42.474 39.422 C 42.277 39.196,42.058 39.047,41.987 39.091 C 41.916 39.135,41.809 39.020,41.751 38.836 C 41.672 38.587,41.499 38.500,41.083 38.500 C 40.669 38.500,40.495 38.413,40.417 38.167 C 40.358 37.983,40.168 37.833,39.994 37.833 C 39.767 37.833,39.707 37.755,39.784 37.556 C 39.855 37.370,39.826 37.318,39.695 37.399 C 39.588 37.465,39.500 37.440,39.500 37.343 C 39.500 37.246,39.242 37.167,38.926 37.167 C 38.442 37.167,38.363 37.115,38.417 36.833 C 38.472 36.547,38.391 36.500,37.843 36.500 C 37.346 36.500,37.186 36.427,37.118 36.167 C 37.052 35.911,36.891 35.833,36.432 35.833 C 35.944 35.833,35.833 35.771,35.833 35.500 C 35.833 35.306,35.944 35.167,36.099 35.167 C 36.245 35.167,36.404 35.017,36.452 34.833 C 36.500 34.649,36.679 34.500,36.853 34.500 C 37.056 34.500,37.167 34.382,37.167 34.167 C 37.167 33.973,37.278 33.833,37.432 33.833 C 37.578 33.833,37.737 33.683,37.785 33.500 C 37.833 33.316,38.012 33.167,38.186 33.167 C 38.389 33.167,38.500 33.049,38.500 32.833 C 38.500 32.638,38.611 32.500,38.768 32.500 C 38.941 32.500,39.001 32.409,38.936 32.241 C 38.879 32.093,38.907 32.026,39.002 32.085 C 39.097 32.143,39.167 31.970,39.167 31.677 C 39.167 31.278,39.239 31.167,39.500 31.167 C 39.722 31.167,39.833 31.056,39.833 30.833 C 39.833 30.650,39.941 30.500,40.074 30.500 C 40.223 30.500,40.367 30.233,40.454 29.792 C 40.541 29.352,40.685 29.083,40.834 29.083 C 40.989 29.083,41.083 28.886,41.101 28.521 C 41.128 27.990,41.427 27.602,41.686 27.762 C 41.751 27.802,41.785 27.703,41.761 27.542 C 41.699 27.118,41.928 26.411,42.116 26.449 C 42.204 26.467,42.294 26.073,42.314 25.574 L 42.350 24.667 41.106 24.667 C 40.266 24.667,39.834 24.734,39.777 24.875 C 39.713 25.034,39.690 25.031,39.680 24.863 C 39.655 24.444,39.167 25.118,39.167 25.571 C 39.167 25.889,39.080 26.000,38.833 26.000 C 38.618 26.000,38.500 26.111,38.500 26.314 C 38.500 26.488,38.351 26.667,38.167 26.715 C 37.911 26.782,37.833 26.942,37.833 27.401 C 37.833 27.771,37.759 27.984,37.639 27.958 C 37.532 27.935,37.363 28.067,37.264 28.250 C 36.912 28.900,36.551 28.738,36.456 27.887 C 36.407 27.456,36.266 27.022,36.142 26.923 C 36.018 26.824,35.834 26.594,35.733 26.413 C 35.625 26.218,35.336 26.062,35.025 26.031 C 34.635 25.992,34.500 25.896,34.500 25.656 C 34.500 25.364,34.374 25.333,33.167 25.333 C 32.212 25.333,31.833 25.393,31.831 25.542 C 31.829 25.681,31.774 25.667,31.667 25.500 C 31.509 25.256,31.480 25.282,31.438 25.708 C 31.426 25.823,31.248 25.941,31.042 25.970 C 30.801 26.004,30.667 26.138,30.667 26.345 C 30.667 26.556,30.552 26.667,30.333 26.667 C 30.041 26.667,29.998 26.784,29.981 27.625 C 29.970 28.152,29.927 28.452,29.885 28.292 C 29.843 28.131,29.702 28.000,29.571 28.000 C 29.440 28.000,29.333 27.880,29.333 27.734 C 29.333 27.588,29.183 27.430,29.000 27.382 C 28.816 27.333,28.667 27.154,28.667 26.981 C 28.667 26.781,28.549 26.667,28.345 26.667 C 28.167 26.667,27.975 26.517,27.917 26.333 C 27.858 26.150,27.703 26.000,27.572 26.000 C 27.441 26.000,27.333 25.850,27.333 25.667 C 27.333 25.444,27.222 25.333,27.000 25.333 C 26.682 25.333,26.569 25.013,26.657 24.362 C 26.674 24.240,26.533 24.100,26.344 24.051 C 26.150 24.000,26.000 23.824,26.000 23.647 C 26.000 23.444,25.882 23.333,25.667 23.333 C 25.444 23.333,25.333 23.222,25.333 23.000 C 25.333 22.778,25.222 22.667,25.000 22.667 C 24.778 22.667,24.667 22.556,24.667 22.333 C 24.667 22.111,24.556 22.000,24.333 22.000 C 24.092 22.000,24.000 21.889,24.000 21.597 C 24.000 21.022,23.834 20.667,23.566 20.667 C 23.438 20.667,23.333 20.517,23.333 20.333 C 23.333 20.111,23.222 20.000,23.000 20.000 C 22.738 20.000,22.667 19.889,22.667 19.484 C 22.667 19.109,22.576 18.945,22.333 18.882 C 22.142 18.832,22.000 18.654,22.000 18.465 C 22.000 18.276,21.858 18.098,21.667 18.048 C 21.483 18.000,21.333 17.864,21.333 17.744 C 21.333 17.625,21.240 17.490,21.125 17.444 C 21.010 17.397,21.076 17.354,21.271 17.346 C 22.239 17.311,22.184 15.881,21.204 15.591 C 20.858 15.488,20.667 15.325,20.667 15.132 C 20.667 14.937,20.537 14.830,20.292 14.823 L 19.917 14.812 20.292 14.661 C 20.502 14.577,20.667 14.367,20.667 14.183 C 20.667 13.950,20.798 13.840,21.125 13.803 C 21.787 13.727,21.723 13.263,21.042 13.198 C 20.737 13.168,20.500 13.223,20.500 13.323 C 20.500 13.420,20.221 13.500,19.880 13.500 C 19.271 13.500,19.266 13.495,19.630 13.241 C 19.879 13.066,20.000 12.810,20.000 12.457 C 20.000 12.092,20.164 11.762,20.542 11.371 C 21.067 10.827,21.073 10.803,20.760 10.572 C 20.339 10.262,19.848 10.267,19.727 10.583 M25.089 11.991 C 25.029 12.087,24.460 12.167,23.823 12.167 L 22.667 12.167 22.667 13.080 C 22.667 14.140,22.798 14.222,24.342 14.135 L 25.250 14.083 25.300 13.302 C 25.346 12.592,25.392 12.516,25.800 12.469 C 26.445 12.394,26.387 11.930,25.724 11.866 C 25.435 11.838,25.149 11.894,25.089 11.991 M25.781 13.941 C 25.581 14.142,25.657 15.000,25.875 15.000 C 26.012 15.000,26.083 15.269,26.083 15.791 L 26.083 16.583 26.708 16.635 C 27.432 16.695,27.446 16.721,27.000 17.167 C 26.599 17.568,26.556 18.422,26.930 18.566 C 27.594 18.820,28.667 18.677,28.667 18.333 C 28.667 18.056,28.778 18.000,29.333 18.000 C 29.889 18.000,30.000 18.056,30.000 18.333 C 30.000 18.625,30.111 18.667,30.888 18.667 L 31.776 18.667 31.813 17.750 C 31.847 16.925,31.816 16.833,31.509 16.833 C 31.321 16.833,31.167 16.730,31.167 16.604 C 31.167 16.477,30.998 16.256,30.792 16.112 C 30.493 15.904,30.473 15.849,30.694 15.842 C 31.060 15.831,31.152 15.523,30.958 14.958 C 30.810 14.527,30.333 14.305,30.333 14.667 C 30.333 14.758,29.989 14.833,29.568 14.833 C 28.942 14.833,28.786 14.894,28.715 15.167 C 28.667 15.350,28.495 15.500,28.333 15.500 C 28.171 15.500,28.000 15.350,27.952 15.167 C 27.881 14.895,27.724 14.833,27.110 14.833 C 26.416 14.833,26.351 14.797,26.303 14.388 C 26.250 13.942,25.997 13.725,25.781 13.941 M21.095 14.648 C 21.045 14.729,21.109 14.883,21.237 14.989 C 21.497 15.205,21.763 14.957,21.583 14.667 C 21.456 14.460,21.217 14.451,21.095 14.648 M9.923 17.990 C 9.870 18.076,9.665 18.115,9.468 18.077 C 8.942 17.976,8.333 18.168,8.333 18.435 C 8.333 18.599,8.113 18.667,7.583 18.667 C 7.069 18.667,6.833 18.597,6.833 18.444 C 6.833 18.302,6.625 18.222,6.250 18.222 L 5.667 18.222 5.667 19.268 C 5.667 20.115,5.728 20.358,5.990 20.541 C 6.229 20.708,6.327 21.005,6.365 21.675 C 6.422 22.684,7.229 23.183,7.449 22.346 C 7.546 21.973,7.803 21.933,9.750 21.992 C 10.813 22.023,11.468 21.568,11.014 21.114 C 10.914 21.014,10.833 20.754,10.833 20.534 C 10.833 20.276,10.716 20.105,10.500 20.048 C 10.134 19.953,9.996 18.459,10.333 18.250 C 10.425 18.193,10.500 18.076,10.500 17.990 C 10.500 17.787,10.049 17.786,9.923 17.990 M16.889 19.039 C 16.706 19.336,15.435 19.717,15.361 19.497 C 15.331 19.407,14.948 19.333,14.512 19.333 C 13.615 19.333,12.928 19.828,13.304 20.204 C 13.412 20.312,13.500 20.610,13.500 20.867 C 13.500 21.222,13.579 21.333,13.833 21.333 C 14.130 21.333,14.167 21.444,14.167 22.342 L 14.167 23.350 15.125 23.300 C 15.844 23.263,16.083 23.187,16.083 23.000 C 16.083 22.562,17.444 22.563,17.584 23.001 C 17.667 23.263,17.808 23.340,18.139 23.301 C 18.743 23.232,18.930 21.441,18.349 21.289 C 18.064 21.215,18.009 21.039,17.966 20.059 C 17.915 18.889,17.325 18.331,16.889 19.039 M27.012 19.978 C 26.748 20.472,26.795 20.962,27.125 21.149 C 27.378 21.293,27.387 21.363,27.195 21.677 C 27.022 21.960,27.017 22.081,27.174 22.228 C 27.324 22.369,27.394 22.364,27.451 22.208 C 27.560 21.913,28.584 21.949,28.840 22.258 C 29.428 22.966,30.110 22.042,29.891 20.833 C 29.758 20.102,29.697 20.065,28.541 20.018 C 28.020 19.997,27.503 19.905,27.392 19.813 C 27.249 19.694,27.138 19.742,27.012 19.978 M35.394 20.417 C 35.341 20.554,35.118 20.667,34.899 20.667 C 34.679 20.667,34.350 20.817,34.167 21.000 L 33.833 21.333 33.833 21.000 C 33.833 20.707,33.722 20.667,32.917 20.667 L 32.000 20.667 32.000 21.667 C 32.000 22.444,32.056 22.667,32.250 22.667 C 32.427 22.667,32.501 22.848,32.502 23.292 C 32.507 24.525,32.613 24.667,33.535 24.667 C 34.224 24.667,34.379 24.610,34.452 24.333 C 34.538 24.003,35.833 23.809,35.833 24.127 C 35.833 24.406,36.508 24.674,36.807 24.514 C 37.281 24.260,37.311 22.667,36.842 22.667 C 36.543 22.667,36.500 22.562,36.500 21.844 C 36.500 20.467,35.747 19.496,35.394 20.417 M36.908 21.848 C 36.736 22.126,37.122 22.444,37.352 22.215 C 37.544 22.022,37.424 21.667,37.167 21.667 C 37.086 21.667,36.969 21.748,36.908 21.848 M15.908 23.848 C 15.710 24.168,16.101 24.356,16.851 24.302 C 17.388 24.264,17.595 24.173,17.636 23.958 C 17.700 23.618,16.112 23.517,15.908 23.848 M7.969 24.847 C 7.544 25.085,7.586 26.440,8.023 26.554 C 8.224 26.607,8.319 26.722,8.251 26.832 C 7.811 27.544,8.289 27.833,9.906 27.833 C 12.094 27.833,12.531 27.478,11.676 26.391 C 11.498 26.164,11.393 25.871,11.444 25.739 C 11.764 24.906,10.728 24.263,10.313 25.038 C 10.113 25.411,8.870 25.457,8.732 25.096 C 8.609 24.776,8.286 24.670,7.969 24.847 M13.360 26.352 C 13.241 26.543,13.233 26.688,13.337 26.752 C 13.427 26.808,13.500 27.074,13.500 27.343 C 13.500 27.769,13.561 27.833,13.967 27.833 C 14.223 27.833,14.514 27.914,14.614 28.014 C 14.907 28.307,15.500 27.832,15.500 27.303 C 15.500 27.056,15.573 26.808,15.663 26.752 C 15.766 26.689,15.751 26.528,15.622 26.319 C 15.342 25.867,13.648 25.891,13.360 26.352 M20.850 26.782 C 20.929 27.249,20.786 27.333,19.917 27.333 C 19.412 27.333,19.000 27.258,19.000 27.167 C 19.000 26.787,18.525 27.038,18.323 27.524 C 18.125 28.002,18.138 28.074,18.470 28.342 C 18.721 28.546,18.833 28.821,18.833 29.235 L 18.833 29.833 20.403 29.833 C 21.266 29.833,22.091 29.788,22.236 29.732 C 22.596 29.594,22.597 28.404,22.238 28.203 C 22.083 28.116,21.961 27.795,21.940 27.413 C 21.906 26.822,21.860 26.765,21.365 26.709 C 21.069 26.675,20.837 26.708,20.850 26.782 M47.500 44.167 C 47.500 44.258,47.350 44.333,47.167 44.333 C 46.983 44.333,46.833 44.258,46.833 44.167 C 46.833 44.075,46.983 44.000,47.167 44.000 C 47.350 44.000,47.500 44.075,47.500 44.167 M29.380 55.921 C 29.095 56.041,28.832 56.110,28.797 56.075 C 28.761 56.039,28.725 56.275,28.716 56.599 C 28.697 57.266,29.060 57.500,30.112 57.500 C 30.568 57.500,30.681 57.443,30.606 57.250 C 30.554 57.112,30.602 56.999,30.714 56.997 C 30.855 56.996,30.861 56.958,30.734 56.872 C 30.634 56.805,30.503 56.552,30.444 56.310 C 30.307 55.749,30.030 55.647,29.380 55.921 M31.491 55.942 C 31.219 56.015,30.776 57.333,31.023 57.333 C 31.102 57.333,31.167 57.200,31.167 57.037 C 31.167 56.874,31.317 56.612,31.500 56.455 C 31.761 56.232,31.989 55.761,31.792 55.853 C 31.769 55.863,31.634 55.903,31.491 55.942 " stroke="none" fill="#d9af4d" fill-rule="evenodd"></path><path id="path1" d="M46.833 44.167 C 46.833 44.258,46.983 44.333,47.167 44.333 C 47.350 44.333,47.500 44.258,47.500 44.167 C 47.500 44.075,47.350 44.000,47.167 44.000 C 46.983 44.000,46.833 44.075,46.833 44.167 M32.248 48.003 C 32.191 48.096,32.062 48.122,31.963 48.060 C 31.859 47.996,31.829 48.026,31.893 48.129 C 31.956 48.230,31.840 48.360,31.627 48.424 C 31.420 48.488,31.137 48.633,31.000 48.747 C 30.694 49.002,29.833 49.221,29.833 49.045 C 29.833 48.974,29.653 48.917,29.433 48.917 C 29.212 48.917,29.061 48.964,29.097 49.023 C 29.133 49.081,29.061 49.213,28.937 49.317 C 28.705 49.509,28.529 55.642,28.745 55.992 C 28.801 56.082,29.078 56.048,29.410 55.909 C 30.055 55.639,30.500 55.886,30.500 56.512 C 30.500 56.689,30.594 56.834,30.708 56.836 C 30.867 56.838,30.869 56.868,30.717 56.965 C 30.590 57.046,30.571 57.179,30.666 57.333 C 30.775 57.509,30.870 57.367,31.022 56.798 C 31.155 56.304,31.339 55.994,31.532 55.943 C 31.801 55.873,31.833 55.657,31.833 53.938 C 31.833 52.209,31.862 52.021,32.111 52.117 C 32.297 52.188,32.349 52.159,32.268 52.028 C 32.201 51.921,32.212 51.833,32.292 51.833 C 32.371 51.833,32.456 51.038,32.480 50.066 C 32.513 48.727,32.475 48.329,32.323 48.423 C 32.195 48.502,32.154 48.463,32.208 48.315 C 32.254 48.188,32.382 48.104,32.492 48.129 C 32.601 48.154,32.644 48.098,32.586 48.004 C 32.453 47.789,32.380 47.789,32.248 48.003 " stroke="none" fill="#ac8424" fill-rule="evenodd"></path><path id="path2" d="M145.098 20.143 C 145.049 20.222,145.026 21.722,145.046 23.476 L 145.083 26.667 141.792 26.667 C 138.611 26.667,138.500 26.678,138.500 27.000 C 138.500 27.293,138.389 27.333,137.589 27.333 C 136.849 27.333,136.645 27.396,136.500 27.667 C 136.402 27.850,136.207 28.000,136.068 28.000 C 135.928 28.000,135.860 28.075,135.916 28.166 C 135.973 28.257,135.829 28.418,135.598 28.524 C 135.366 28.629,135.216 28.779,135.265 28.857 C 135.313 28.935,135.160 29.086,134.926 29.193 C 134.597 29.342,134.500 29.510,134.500 29.924 C 134.500 30.323,134.413 30.484,134.162 30.550 C 133.976 30.598,133.835 30.701,133.848 30.777 C 133.981 31.532,133.802 32.469,133.510 32.546 C 133.207 32.625,133.186 32.795,133.186 35.149 C 133.186 37.531,133.203 37.667,133.510 37.667 C 133.816 37.667,133.956 38.274,133.846 39.125 C 133.831 39.240,133.901 39.333,134.003 39.333 C 134.104 39.333,134.139 39.410,134.081 39.504 C 134.023 39.598,134.073 39.654,134.192 39.629 C 134.311 39.604,134.434 39.752,134.466 39.958 C 134.503 40.198,134.639 40.333,134.845 40.333 C 135.056 40.333,135.167 40.448,135.167 40.667 C 135.167 40.889,135.278 41.000,135.500 41.000 C 135.718 41.000,135.833 41.111,135.833 41.322 C 135.833 41.529,135.967 41.663,136.208 41.697 C 136.460 41.733,136.567 41.847,136.534 42.044 C 136.506 42.206,136.544 42.329,136.617 42.316 C 137.474 42.172,138.500 42.363,138.500 42.667 C 138.500 43.194,144.149 43.185,144.287 42.658 C 144.400 42.228,145.750 42.236,145.750 42.667 C 145.750 42.875,146.136 42.924,148.042 42.963 L 150.333 43.009 150.333 31.505 L 150.333 20.000 147.760 20.000 C 146.344 20.000,145.147 20.064,145.098 20.143 M168.167 23.333 L 168.167 26.667 164.833 26.667 C 161.611 26.667,161.500 26.678,161.500 27.000 C 161.500 27.281,161.382 27.337,160.750 27.354 C 159.630 27.385,159.581 27.401,159.606 27.712 C 159.623 27.914,159.505 28.000,159.214 28.000 C 158.924 28.000,158.825 28.072,158.888 28.235 C 158.945 28.385,158.831 28.506,158.572 28.571 C 158.349 28.627,158.167 28.766,158.167 28.880 C 158.167 28.993,158.013 29.183,157.824 29.300 C 157.636 29.418,157.494 29.642,157.510 29.799 C 157.563 30.328,157.501 30.500,157.258 30.500 C 156.970 30.500,156.749 31.471,156.916 31.997 C 157.004 32.275,156.951 32.377,156.682 32.448 C 156.194 32.575,156.131 37.603,156.616 37.697 C 156.823 37.737,156.912 37.953,156.948 38.501 C 157.013 39.506,157.039 39.650,157.153 39.638 C 157.503 39.600,157.643 39.701,157.556 39.927 C 157.490 40.100,157.575 40.217,157.812 40.279 C 158.135 40.364,158.241 40.532,158.186 40.875 C 158.176 40.944,158.317 41.000,158.500 41.000 C 158.722 41.000,158.833 41.111,158.833 41.333 C 158.833 41.574,158.944 41.667,159.231 41.667 C 159.508 41.667,159.623 41.755,159.606 41.958 C 159.587 42.200,159.748 42.259,160.542 42.300 C 161.364 42.343,161.500 42.396,161.500 42.675 C 161.500 43.188,167.318 43.179,167.452 42.667 C 167.520 42.406,167.679 42.333,168.186 42.333 C 168.722 42.333,168.833 42.391,168.833 42.667 C 168.833 42.984,168.944 43.000,171.083 43.000 L 173.333 43.000 173.333 31.500 L 173.333 20.000 170.750 20.000 L 168.167 20.000 168.167 23.333 M49.683 23.272 C 49.711 24.353,49.763 24.556,50.025 24.625 C 50.319 24.702,50.333 25.049,50.333 32.269 C 50.333 39.875,50.329 39.933,49.799 39.855 C 49.734 39.846,49.697 40.531,49.716 41.377 L 49.750 42.917 57.550 42.956 C 62.654 42.982,65.315 42.939,65.249 42.831 C 65.193 42.741,65.226 42.667,65.323 42.667 C 65.436 42.667,65.500 42.041,65.500 40.928 C 65.500 38.946,65.506 38.953,64.083 39.088 C 62.869 39.203,62.833 39.210,62.833 39.347 C 62.833 39.416,62.927 39.511,63.042 39.558 C 63.156 39.605,61.387 39.630,59.111 39.613 L 54.972 39.583 54.992 30.792 L 55.013 22.000 52.331 22.000 L 49.649 22.000 49.683 23.272 M73.367 26.953 C 73.407 27.193,73.280 27.260,72.708 27.301 C 72.205 27.338,72.000 27.426,72.000 27.609 C 72.000 27.749,71.850 27.904,71.667 27.952 C 71.483 28.000,71.333 28.134,71.333 28.250 C 71.333 28.366,71.175 28.502,70.982 28.553 C 70.789 28.603,70.664 28.743,70.704 28.863 C 70.744 28.983,70.621 29.159,70.430 29.254 C 70.239 29.350,70.073 29.576,70.059 29.756 C 70.046 29.936,70.027 30.177,70.018 30.292 C 70.008 30.406,69.891 30.500,69.758 30.500 C 69.470 30.500,69.249 31.471,69.416 31.997 C 69.504 32.276,69.450 32.378,69.175 32.449 C 68.825 32.541,68.625 37.688,68.974 37.642 C 69.323 37.595,69.478 37.697,69.393 37.917 C 69.245 38.303,69.477 39.000,69.753 39.000 C 69.889 39.000,70.000 39.150,70.000 39.333 C 70.000 39.556,70.111 39.667,70.333 39.667 C 70.556 39.667,70.667 39.778,70.667 40.000 C 70.667 40.222,70.778 40.333,71.000 40.333 C 71.222 40.333,71.333 40.444,71.333 40.667 C 71.333 40.889,71.444 41.000,71.667 41.000 C 71.889 41.000,72.000 41.111,72.000 41.333 C 72.000 41.611,72.111 41.667,72.667 41.667 C 73.222 41.667,73.333 41.722,73.333 42.000 C 73.333 42.296,73.444 42.333,74.333 42.333 C 75.222 42.333,75.333 42.370,75.333 42.667 C 75.333 42.990,75.444 43.000,78.917 43.000 C 82.389 43.000,82.500 42.990,82.500 42.667 C 82.500 42.370,82.611 42.333,83.500 42.333 L 84.500 42.333 84.500 40.679 L 84.500 39.026 82.583 39.054 C 80.880 39.080,80.667 39.116,80.667 39.375 C 80.667 39.775,78.762 39.808,78.540 39.412 C 78.416 39.190,77.778 39.042,76.797 39.010 C 76.612 39.003,76.545 38.911,76.606 38.750 C 76.681 38.556,76.565 38.500,76.086 38.500 C 75.609 38.500,75.449 38.424,75.382 38.167 C 75.333 37.982,75.154 37.833,74.981 37.833 C 74.772 37.833,74.660 37.708,74.647 37.458 C 74.607 36.670,74.576 36.584,74.333 36.584 C 74.196 36.584,74.059 36.415,74.030 36.208 L 73.977 35.833 79.030 35.814 C 81.809 35.803,84.177 35.806,84.292 35.821 C 84.406 35.836,84.500 35.695,84.500 35.507 C 84.500 35.278,84.609 35.167,84.833 35.167 C 85.151 35.167,85.167 35.056,85.167 32.833 C 85.167 30.611,85.151 30.500,84.833 30.500 C 84.555 30.500,84.500 30.389,84.500 29.823 C 84.500 29.451,84.440 29.184,84.367 29.229 C 84.113 29.386,83.844 29.067,83.805 28.563 C 83.767 28.058,83.708 28.017,82.917 27.951 C 82.644 27.929,82.500 27.816,82.500 27.625 C 82.500 27.444,82.373 27.333,82.167 27.333 C 81.871 27.333,81.759 27.165,81.810 26.802 C 81.819 26.739,79.912 26.681,77.571 26.672 C 73.580 26.658,73.320 26.675,73.367 26.953 M93.856 26.801 C 93.908 27.165,93.796 27.333,93.500 27.333 C 93.280 27.333,93.167 27.444,93.167 27.661 C 93.167 27.883,93.086 27.959,92.919 27.894 C 92.757 27.832,92.615 27.948,92.508 28.230 C 92.402 28.509,92.258 28.627,92.099 28.566 C 91.911 28.494,91.842 28.640,91.802 29.194 C 91.759 29.787,91.695 29.907,91.446 29.865 C 91.166 29.817,91.146 29.942,91.196 31.448 C 91.243 32.885,91.285 33.081,91.542 33.060 C 91.745 33.044,91.833 33.158,91.833 33.435 C 91.833 33.722,91.926 33.833,92.167 33.833 C 92.389 33.833,92.500 33.944,92.500 34.167 C 92.500 34.389,92.611 34.500,92.833 34.500 C 93.056 34.500,93.167 34.611,93.167 34.833 C 93.167 35.102,93.278 35.167,93.739 35.167 C 94.159 35.167,94.338 35.253,94.414 35.490 C 94.486 35.720,94.697 35.829,95.133 35.865 C 95.548 35.900,95.750 35.999,95.750 36.167 C 95.750 36.436,95.793 36.448,96.897 36.479 C 97.478 36.496,97.646 36.568,97.715 36.833 C 97.781 37.086,97.942 37.167,98.382 37.167 C 98.821 37.167,98.982 37.247,99.048 37.500 C 99.096 37.683,99.255 37.833,99.401 37.833 C 99.731 37.833,99.787 38.994,99.458 39.010 C 98.347 39.062,97.918 39.158,97.747 39.393 C 97.456 39.791,95.714 39.785,95.637 39.385 C 95.591 39.146,95.308 39.094,93.757 39.042 C 91.037 38.951,91.167 38.865,91.167 40.753 L 91.167 42.333 92.167 42.333 C 93.056 42.333,93.167 42.370,93.167 42.667 C 93.167 42.990,93.278 43.000,96.750 43.000 C 100.222 43.000,100.333 42.990,100.333 42.667 C 100.333 42.370,100.444 42.333,101.333 42.333 C 102.222 42.333,102.333 42.296,102.333 42.000 C 102.333 41.681,102.655 41.568,103.308 41.658 C 103.432 41.675,103.484 41.609,103.424 41.511 C 103.363 41.413,103.393 41.333,103.490 41.333 C 103.587 41.333,103.667 41.108,103.667 40.833 C 103.667 40.441,103.740 40.333,104.006 40.333 C 104.374 40.333,104.509 35.795,104.148 35.572 C 104.064 35.520,104.046 35.394,104.108 35.293 C 104.181 35.175,104.122 35.148,103.944 35.216 C 103.742 35.294,103.667 35.232,103.667 34.990 C 103.667 34.806,103.535 34.607,103.375 34.546 C 103.016 34.410,102.655 34.067,102.760 33.962 C 102.803 33.919,102.604 33.878,102.319 33.869 C 101.760 33.854,101.583 33.751,101.583 33.444 C 101.583 33.325,101.215 33.231,100.625 33.200 C 99.803 33.157,99.667 33.104,99.667 32.825 C 99.667 32.557,99.550 32.500,99.000 32.500 C 98.397 32.500,98.259 32.398,98.305 31.985 C 98.311 31.931,98.044 31.876,97.712 31.864 C 97.121 31.842,96.767 31.576,96.944 31.288 C 96.993 31.209,96.895 31.168,96.725 31.197 C 96.471 31.241,96.408 31.125,96.365 30.542 L 96.314 29.833 98.657 29.833 C 100.905 29.833,101.000 29.847,101.000 30.174 C 101.000 30.491,101.086 30.511,102.292 30.465 L 103.583 30.417 103.630 28.537 L 103.678 26.658 98.759 26.672 C 96.053 26.679,93.847 26.737,93.856 26.801 M114.833 27.000 C 114.833 27.278,114.722 27.333,114.167 27.333 C 113.688 27.333,113.500 27.403,113.500 27.581 C 113.500 27.742,113.265 27.867,112.833 27.936 C 112.451 27.997,112.167 28.135,112.167 28.260 C 112.167 28.380,112.016 28.525,111.831 28.584 C 111.646 28.643,111.534 28.754,111.583 28.832 C 111.631 28.910,111.480 29.123,111.247 29.306 C 111.014 29.489,110.835 29.701,110.848 29.778 C 110.921 30.194,110.796 30.471,110.500 30.548 C 110.245 30.615,110.167 30.776,110.167 31.234 C 110.167 31.666,110.094 31.833,109.907 31.833 C 109.764 31.833,109.693 31.908,109.750 32.000 C 109.807 32.092,109.780 32.167,109.690 32.167 C 109.591 32.167,109.520 33.250,109.508 34.917 C 109.490 37.553,109.503 37.667,109.820 37.667 C 110.105 37.667,110.157 37.798,110.200 38.625 C 110.237 39.344,110.313 39.583,110.500 39.583 C 110.638 39.583,110.774 39.752,110.803 39.958 C 110.837 40.199,110.971 40.333,111.178 40.333 C 111.389 40.333,111.500 40.448,111.500 40.667 C 111.500 40.889,111.611 41.000,111.833 41.000 C 112.056 41.000,112.167 41.111,112.167 41.333 C 112.167 41.611,112.278 41.667,112.833 41.667 C 113.389 41.667,113.500 41.722,113.500 42.000 C 113.500 42.296,113.611 42.333,114.481 42.333 C 115.332 42.333,115.473 42.379,115.551 42.679 C 115.658 43.087,121.250 43.130,121.250 42.722 C 121.250 42.403,121.381 42.355,122.369 42.315 C 122.889 42.294,123.310 42.233,123.304 42.180 C 123.266 41.823,123.377 41.667,123.667 41.667 C 123.889 41.667,124.000 41.556,124.000 41.333 C 124.000 41.029,124.533 40.874,125.208 40.980 C 125.277 40.991,125.333 40.850,125.333 40.667 C 125.333 40.444,125.444 40.333,125.667 40.333 C 125.944 40.333,126.000 40.222,126.000 39.667 C 126.000 39.119,126.057 39.000,126.322 39.000 C 126.529 39.000,126.663 38.866,126.697 38.625 C 126.726 38.419,126.862 38.250,127.000 38.250 C 127.215 38.250,127.250 37.713,127.250 34.417 C 127.250 30.868,127.228 30.585,126.958 30.606 C 126.726 30.625,126.667 30.496,126.667 29.966 C 126.667 29.446,126.596 29.284,126.339 29.216 C 126.159 29.169,125.966 28.989,125.911 28.815 C 125.856 28.642,125.703 28.500,125.572 28.500 C 125.441 28.500,125.333 28.393,125.333 28.263 C 125.333 28.007,124.450 27.742,124.171 27.914 C 124.075 27.973,124.000 27.868,124.000 27.677 C 124.000 27.387,123.895 27.333,123.333 27.333 C 122.778 27.333,122.667 27.278,122.667 27.000 C 122.667 26.676,122.556 26.667,118.750 26.667 C 114.944 26.667,114.833 26.676,114.833 27.000 M78.667 30.099 C 78.667 30.245,78.817 30.404,79.000 30.452 C 79.184 30.500,79.333 30.679,79.333 30.853 C 79.333 31.056,79.451 31.167,79.667 31.167 C 79.944 31.167,80.000 31.278,80.000 31.833 L 80.000 32.500 77.000 32.500 C 74.111 32.500,74.000 32.488,74.000 32.167 C 74.000 31.944,74.111 31.833,74.333 31.833 C 74.579 31.833,74.667 31.722,74.667 31.409 C 74.667 31.098,74.744 30.998,74.958 31.034 C 75.150 31.067,75.242 30.983,75.227 30.792 C 75.211 30.589,75.325 30.500,75.602 30.500 C 75.889 30.500,76.000 30.407,76.000 30.167 C 76.000 29.861,76.111 29.833,77.333 29.833 C 78.442 29.833,78.667 29.878,78.667 30.099 M119.520 30.042 C 119.531 30.156,119.529 30.310,119.517 30.383 C 119.505 30.456,119.590 30.503,119.706 30.488 C 120.350 30.404,120.667 30.517,120.667 30.833 C 120.667 31.056,120.778 31.167,121.000 31.167 C 121.259 31.167,121.333 31.278,121.333 31.667 C 121.333 31.942,121.413 32.167,121.510 32.167 C 121.607 32.167,121.640 32.242,121.583 32.333 C 121.527 32.425,121.554 32.500,121.643 32.500 C 121.732 32.500,121.843 32.406,121.890 32.292 C 121.965 32.105,122.075 33.215,122.015 33.556 C 122.001 33.633,122.146 33.736,122.337 33.786 C 122.751 33.894,122.776 35.290,122.363 35.204 C 122.241 35.179,122.189 35.235,122.247 35.329 C 122.306 35.423,122.274 35.500,122.177 35.500 C 122.079 35.500,122.000 35.579,122.000 35.677 C 122.000 35.774,122.094 35.800,122.208 35.735 C 122.375 35.641,122.375 35.663,122.208 35.842 C 122.094 35.966,122.000 36.309,122.000 36.605 C 122.000 36.998,121.909 37.173,121.667 37.250 C 121.435 37.323,121.333 37.502,121.333 37.835 C 121.333 38.372,121.216 38.486,120.610 38.536 C 120.379 38.555,120.204 38.649,120.220 38.744 C 120.237 38.839,120.004 38.940,119.703 38.969 C 119.385 39.000,119.071 39.157,118.954 39.344 C 118.691 39.767,118.218 39.756,118.081 39.325 C 118.021 39.137,117.847 38.996,117.695 39.011 C 117.098 39.070,116.833 38.990,116.833 38.750 C 116.833 38.611,116.685 38.500,116.500 38.500 C 116.202 38.500,116.089 38.327,116.147 37.958 C 116.158 37.890,116.017 37.833,115.833 37.833 C 115.520 37.833,115.406 37.524,115.485 36.888 C 115.498 36.780,115.357 36.644,115.171 36.585 C 114.652 36.420,114.647 32.500,115.167 32.500 C 115.444 32.500,115.500 32.389,115.500 31.833 C 115.500 31.278,115.556 31.167,115.833 31.167 C 116.056 31.167,116.167 31.056,116.167 30.833 C 116.167 30.562,116.278 30.500,116.766 30.500 C 117.224 30.500,117.385 30.422,117.452 30.167 C 117.556 29.768,119.483 29.651,119.520 30.042 M144.417 30.167 C 144.475 30.350,144.630 30.500,144.761 30.500 C 144.945 30.500,145.001 30.761,145.003 31.625 C 145.005 32.727,145.139 33.210,145.435 33.181 C 145.517 33.173,145.604 34.366,145.629 35.833 C 145.674 38.458,145.669 38.500,145.320 38.500 C 145.072 38.500,144.993 38.576,145.060 38.750 C 145.163 39.018,144.875 39.080,143.863 39.010 C 143.421 38.979,143.291 39.043,143.216 39.327 C 143.101 39.770,141.751 39.775,141.749 39.333 C 141.749 39.196,141.599 39.073,141.416 39.059 C 141.233 39.046,140.952 39.027,140.792 39.018 C 140.631 39.008,140.500 38.887,140.500 38.750 C 140.500 38.611,140.352 38.500,140.167 38.500 C 139.944 38.500,139.833 38.389,139.833 38.167 C 139.833 37.948,139.722 37.833,139.510 37.833 C 139.257 37.833,139.176 37.698,139.135 37.208 C 139.100 36.787,139.002 36.583,138.833 36.583 C 138.628 36.583,138.576 36.240,138.541 34.667 C 138.515 33.497,138.556 32.840,138.647 32.980 C 138.884 33.345,139.167 33.033,139.167 32.407 C 139.167 31.944,139.231 31.833,139.500 31.833 C 139.715 31.833,139.833 31.722,139.833 31.519 C 139.833 31.339,139.985 31.166,140.188 31.113 C 140.425 31.051,140.510 30.934,140.444 30.760 C 140.370 30.568,140.451 30.500,140.755 30.500 C 141.056 30.500,141.167 30.410,141.167 30.167 C 141.167 29.857,141.278 29.833,142.739 29.833 C 144.164 29.833,144.321 29.864,144.417 30.167 M167.500 30.167 C 167.500 30.389,167.611 30.500,167.833 30.500 C 168.139 30.500,168.167 30.611,168.167 31.833 C 168.167 32.567,168.223 33.158,168.292 33.147 C 168.807 33.065,168.833 33.194,168.833 35.833 C 168.833 38.389,168.819 38.500,168.500 38.500 C 168.315 38.500,168.167 38.611,168.167 38.750 C 168.167 39.004,167.882 39.060,166.863 39.003 C 166.428 38.979,166.290 39.047,166.219 39.320 C 166.091 39.806,164.914 39.827,164.788 39.344 C 164.725 39.104,164.565 39.025,164.165 39.037 C 163.824 39.046,163.569 38.950,163.471 38.776 C 163.386 38.624,163.208 38.500,163.075 38.500 C 162.942 38.500,162.833 38.380,162.833 38.234 C 162.833 38.088,162.683 37.930,162.500 37.882 C 162.308 37.831,162.159 37.644,162.147 37.439 C 162.106 36.669,162.075 36.584,161.833 36.584 C 161.630 36.583,161.575 36.254,161.536 34.809 C 161.493 33.193,161.516 33.037,161.786 33.059 C 162.074 33.083,162.107 33.007,162.147 32.208 C 162.161 31.947,162.271 31.833,162.510 31.833 C 162.699 31.833,162.810 31.764,162.758 31.680 C 162.631 31.474,163.150 30.970,163.358 31.099 C 163.449 31.155,163.499 31.062,163.469 30.892 C 163.433 30.678,163.532 30.567,163.792 30.530 C 164.033 30.496,164.167 30.362,164.167 30.155 C 164.167 29.859,164.298 29.833,165.833 29.833 C 167.389 29.833,167.500 29.856,167.500 30.167 " stroke="none" fill="#3c343c" fill-rule="evenodd"></path><path id="path3" d="" stroke="none" fill="#68906c" fill-rule="evenodd"></path><path id="path4" d="M81.375 39.115 C 81.535 39.157,81.798 39.157,81.958 39.115 C 82.119 39.073,81.987 39.039,81.667 39.039 C 81.346 39.039,81.215 39.073,81.375 39.115 " stroke="none" fill="#68347c" fill-rule="evenodd"></path></g></svg>